<svg xmlns="http://www.w3.org/2000/svg" viewBox="0 0 110 110">
  <defs>
    <linearGradient id="medicRed" x1="0%" y1="0%" x2="0%" y2="100%">
      <stop offset="0%" style="stop-color:#E53E3E"/>
      <stop offset="100%" style="stop-color:#C53030"/>
    </linearGradient>
    <linearGradient id="forgeGray" x1="0%" y1="0%" x2="0%" y2="100%">
      <stop offset="0%" style="stop-color:#4A5568"/>
      <stop offset="100%" style="stop-color:#2D3748"/>
    </linearGradient>
    <linearGradient id="emberAccent" x1="0%" y1="0%" x2="100%" y2="100%">
      <stop offset="0%" style="stop-color:#F6AD55"/>
      <stop offset="50%" style="stop-color:#ED8936"/>
      <stop offset="100%" style="stop-color:#C05621"/>
    </linearGradient>
  </defs>
  <g transform="translate(55, 55)">
    <circle cx="0" cy="0" r="48" fill="url(#forgeGray)"/>
    <circle cx="0" cy="0" r="44" fill="none" stroke="#C53030" stroke-width="2"/>
    <circle cx="0" cy="0" r="40" fill="#1A202C"/>
    <g fill="url(#medicRed)">
      <polygon points="-8,-35 8,-35 8,-12 12,-12 12,12 8,12 8,35 -8,35 -8,12 -12,12 -12,-12 -8,-12"/>
      <polygon points="-8,-35 8,-35 8,-12 12,-12 12,12 8,12 8,35 -8,35 -8,12 -12,12 -12,-12 -8,-12" transform="rotate(60)"/>
      <polygon points="-8,-35 8,-35 8,-12 12,-12 12,12 8,12 8,35 -8,35 -8,12 -12,12 -12,-12 -8,-12" transform="rotate(120)"/>
    </g>
    <g fill="none" stroke="#7F1D1D" stroke-width="0.5" opacity="0.4">
      <polygon points="-8,-35 8,-35 8,-12 12,-12 12,12 8,12 8,35 -8,35 -8,12 -12,12 -12,-12 -8,-12"/>
      <polygon points="-8,-35 8,-35 8,-12 12,-12 12,12 8,12 8,35 -8,35 -8,12 -12,12 -12,-12 -8,-12" transform="rotate(60)"/>
      <polygon points="-8,-35 8,-35 8,-12 12,-12 12,12 8,12 8,35 -8,35 -8,12 -12,12 -12,-12 -8,-12" transform="rotate(120)"/>
    </g>
    <circle cx="0" cy="0" r="12" fill="#2D3748"/>
    <rect x="-1.5" y="-8" width="3" height="16" rx="0.5" fill="#A0AEC0"/>
    <path d="M-1,-6 Q-5,-4 -4,0 Q-3,3 1,2 Q5,1 4,4 Q3,7 0,8" fill="none" stroke="#E2E8F0" stroke-width="1.5" stroke-linecap="round"/>
    <g fill="url(#emberAccent)" opacity="0.85">
      <path d="M0,-40 Q-3,-38 0,-35 Q3,-38 0,-40" />
      <path d="M0,40 Q-3,38 0,35 Q3,38 0,40" />
      <path d="M34.6,-20 Q33,-23 30.3,-17.5 Q35,-18 34.6,-20" />
      <path d="M-34.6,-20 Q-33,-23 -30.3,-17.5 Q-35,-18 -34.6,-20" />
      <path d="M34.6,20 Q33,23 30.3,17.5 Q35,18 34.6,20" />
      <path d="M-34.6,20 Q-33,23 -30.3,17.5 Q-35,18 -34.6,20" />
    </g>
  </g>
</svg>
